<svg width="123" height="28" viewBox="0 0 123 28" fill="none" xmlns="http://www.w3.org/2000/svg">
<path d="M4.66675 19.8333L11.6667 12.8333L4.66675 5.83334" stroke="#22D3EE" stroke-width="2.33333" stroke-linecap="round" stroke-linejoin="round"/>
<path d="M14 22.1667H23.3333" stroke="#22D3EE" stroke-width="2.33333" stroke-linecap="round" stroke-linejoin="round"/>
<path d="M46.7285 8.23828V19H44.2676V8.23828H40.7715V6.23633H50.2246V8.23828H46.7285ZM62.6309 12.5645C62.6309 13.7233 62.4941 14.7227 62.2207 15.5625C61.9538 16.4023 61.5827 17.0924 61.1074 17.6328C60.6387 18.1732 60.0853 18.5736 59.4473 18.834C58.8158 19.0944 58.1387 19.2246 57.416 19.2246C55.7363 19.2246 54.4733 18.668 53.627 17.5547C52.7806 16.4349 52.3574 14.8105 52.3574 12.6816C52.3574 11.5228 52.4909 10.5234 52.7578 9.68359C53.0312 8.84375 53.4023 8.15365 53.8711 7.61328C54.3464 7.07292 54.8997 6.67253 55.5312 6.41211C56.1693 6.15169 56.8496 6.02148 57.5723 6.02148C59.252 6.02148 60.515 6.57812 61.3613 7.69141C62.2077 8.80469 62.6309 10.429 62.6309 12.5645ZM60.0918 12.6816C60.0918 11.1712 59.89 10.0449 59.4863 9.30273C59.0827 8.56055 58.4186 8.18945 57.4941 8.18945C57.0319 8.18945 56.638 8.28711 56.3125 8.48242C55.987 8.67122 55.7168 8.95117 55.502 9.32227C55.2936 9.69336 55.1406 10.1523 55.043 10.6992C54.9453 11.2396 54.8965 11.8613 54.8965 12.5645C54.8965 14.0749 55.0983 15.2012 55.502 15.9434C55.9121 16.6855 56.5762 17.0566 57.4941 17.0566C57.9564 17.0566 58.3503 16.9622 58.6758 16.7734C59.0078 16.5781 59.278 16.2949 59.4863 15.9238C59.6947 15.5527 59.8477 15.097 59.9453 14.5566C60.043 14.0098 60.0918 13.3848 60.0918 12.6816ZM74.627 12.5645C74.627 13.7233 74.4902 14.7227 74.2168 15.5625C73.9499 16.4023 73.5788 17.0924 73.1035 17.6328C72.6348 18.1732 72.0814 18.5736 71.4434 18.834C70.8118 19.0944 70.1348 19.2246 69.4121 19.2246C67.7324 19.2246 66.4694 18.668 65.623 17.5547C64.7767 16.4349 64.3535 14.8105 64.3535 12.6816C64.3535 11.5228 64.487 10.5234 64.7539 9.68359C65.0273 8.84375 65.3984 8.15365 65.8672 7.61328C66.3424 7.07292 66.8958 6.67253 67.5273 6.41211C68.1654 6.15169 68.8457 6.02148 69.5684 6.02148C71.248 6.02148 72.5111 6.57812 73.3574 7.69141C74.2038 8.80469 74.627 10.429 74.627 12.5645ZM72.0879 12.6816C72.0879 11.1712 71.8861 10.0449 71.4824 9.30273C71.0788 8.56055 70.4147 8.18945 69.4902 8.18945C69.028 8.18945 68.6341 8.28711 68.3086 8.48242C67.9831 8.67122 67.7129 8.95117 67.498 9.32227C67.2897 9.69336 67.1367 10.1523 67.0391 10.6992C66.9414 11.2396 66.8926 11.8613 66.8926 12.5645C66.8926 14.0749 67.0944 15.2012 67.498 15.9434C67.9082 16.6855 68.5723 17.0566 69.4902 17.0566C69.9525 17.0566 70.3464 16.9622 70.6719 16.7734C71.0039 16.5781 71.2741 16.2949 71.4824 15.9238C71.6908 15.5527 71.8438 15.097 71.9414 14.5566C72.0391 14.0098 72.0879 13.3848 72.0879 12.6816ZM77.9121 19V6.23633H80.3535V16.9395H85.7441V19H77.9121Z" fill="white"/>
<path d="M95.6504 19V13.4434H91.3145V19H88.9121V6.23633H91.3145V11.3633H95.6504V6.23633H98.0527V19H95.6504ZM110.127 14.3027C110.127 15.1165 110.016 15.8327 109.795 16.4512C109.58 17.0632 109.268 17.5742 108.857 17.9844C108.454 18.3945 107.959 18.7038 107.373 18.9121C106.787 19.1204 106.13 19.2246 105.4 19.2246C104.58 19.2246 103.877 19.1204 103.291 18.9121C102.705 18.7038 102.23 18.4043 101.865 18.0137C101.501 17.623 101.237 17.1478 101.074 16.5879C100.911 16.028 100.83 15.3997 100.83 14.7031V6.23633H103.232V14.5566C103.232 14.9863 103.268 15.3672 103.34 15.6992C103.418 16.0312 103.548 16.3145 103.73 16.5488C103.919 16.7767 104.154 16.9492 104.434 17.0664C104.714 17.1836 105.065 17.2422 105.488 17.2422C105.885 17.2422 106.221 17.1934 106.494 17.0957C106.768 16.9915 106.995 16.8288 107.178 16.6074C107.36 16.3796 107.497 16.0898 107.588 15.7383C107.679 15.3867 107.725 14.9603 107.725 14.459V6.23633H110.127V14.3027ZM113.236 19V6.23633H117.357C118.809 6.23633 119.896 6.49023 120.619 6.99805C121.348 7.50586 121.713 8.27409 121.713 9.30273C121.713 9.62174 121.674 9.93424 121.596 10.2402C121.524 10.5397 121.41 10.8164 121.254 11.0703C121.098 11.3242 120.902 11.5488 120.668 11.7441C120.434 11.9395 120.157 12.0924 119.838 12.2031C120.157 12.2552 120.46 12.3594 120.746 12.5156C121.039 12.6654 121.293 12.8639 121.508 13.1113C121.729 13.3522 121.902 13.6387 122.025 13.9707C122.156 14.3027 122.221 14.6738 122.221 15.084C122.221 16.3861 121.785 17.3659 120.912 18.0234C120.04 18.6745 118.78 19 117.133 19H113.236ZM119.213 9.72266C119.213 9.48177 119.174 9.26367 119.096 9.06836C119.018 8.87305 118.891 8.70703 118.715 8.57031C118.546 8.43359 118.324 8.32943 118.051 8.25781C117.784 8.17969 117.458 8.14062 117.074 8.14062H115.619V11.5195H117.074C117.465 11.5195 117.794 11.474 118.061 11.3828C118.334 11.2852 118.555 11.1549 118.725 10.9922C118.9 10.8229 119.024 10.6309 119.096 10.416C119.174 10.2012 119.213 9.97005 119.213 9.72266ZM117.299 17.0371C117.683 17.0371 118.018 16.9883 118.305 16.8906C118.598 16.793 118.842 16.6595 119.037 16.4902C119.232 16.3145 119.379 16.1094 119.477 15.875C119.581 15.6406 119.633 15.39 119.633 15.123C119.633 14.5697 119.424 14.1367 119.008 13.8242C118.598 13.5117 117.966 13.3555 117.113 13.3555H115.619V17.0371H117.299Z" fill="#22D3EE"/>
</svg>
