<svg width="17" height="17" viewBox="0 0 17 17" fill="none" xmlns="http://www.w3.org/2000/svg">
<path d="M15.1661 8.53952C15.0931 9.89079 14.6303 11.192 13.8336 12.2859C13.037 13.3797 11.9405 14.2194 10.6768 14.7034C9.41305 15.1874 8.0362 15.295 6.71264 15.0132C5.38908 14.7314 4.17548 14.0722 3.21855 13.1154C2.26162 12.1585 1.60233 10.945 1.32037 9.62146C1.03841 8.29793 1.14585 6.92105 1.62972 5.65728C2.11358 4.39351 2.95314 3.29694 4.04692 2.50014C5.14069 1.70334 6.44185 1.24042 7.79311 1.16733C8.10833 1.15021 8.27333 1.52535 8.10599 1.79232C7.5463 2.68781 7.30664 3.74656 7.42613 4.79579C7.54562 5.84502 8.0172 6.82278 8.76392 7.56949C9.51063 8.3162 10.4884 8.78779 11.5376 8.90728C12.5868 9.02677 13.6456 8.78711 14.5411 8.22742C14.8088 8.06008 15.1832 8.2243 15.1661 8.53952Z" stroke="white" stroke-width="2.33333" stroke-linecap="round" stroke-linejoin="round"/>
</svg>
