<svg width="184" height="183" viewBox="0 0 184 183" fill="none" xmlns="http://www.w3.org/2000/svg">
<path d="M92 13C135.639 13 171 48.1064 171 91.3994C171 134.693 135.639 169.8 92 169.8C48.3612 169.8 13 134.693 13 91.3994C13.0003 48.1064 48.3613 13 92 13Z" stroke="#22D3EE" stroke-width="2"/>
<path d="M91.9998 36.8198C99.1631 36.8198 106.032 39.6445 111.095 44.6694C116.157 49.6941 119 56.5073 119 63.6099C119 67.1269 118.301 70.6101 116.945 73.8599C115.589 77.1093 113.601 80.0625 111.095 82.5503C108.588 85.0383 105.611 87.0129 102.335 88.3599C99.0585 89.7068 95.5465 90.3999 91.9998 90.3999C88.4531 90.3999 84.9412 89.7068 81.6649 88.3599C78.3885 87.0129 75.4119 85.0383 72.9051 82.5503C70.3985 80.0625 68.4107 77.1093 67.0545 73.8599C65.6982 70.6101 64.9998 67.1269 64.9998 63.6099C64.9998 56.5073 67.8426 49.6941 72.9051 44.6694C77.968 39.6445 84.8366 36.8198 91.9998 36.8198Z" stroke="#22D3EE" stroke-width="2"/>
<path d="M72.0002 131.22H112C116.282 131.22 120.365 132.909 123.357 135.878C125.624 138.129 127.124 140.974 127.715 144.025C117.225 151.03 104.806 154.82 92.0246 154.8H91.9758C79.1945 154.82 66.7746 151.03 56.2844 144.025C56.8757 140.974 58.3759 138.129 60.6437 135.878C63.6352 132.909 67.7181 131.22 72.0002 131.22Z" stroke="#22D3EE" stroke-width="32"/>
<path d="M120 63.6098C120 67.2592 119.276 70.8729 117.868 74.2445C116.461 77.6162 114.399 80.6797 111.799 83.2603C109.199 85.8408 106.112 87.8878 102.715 89.2844C99.3178 90.6809 95.6768 91.3998 91.9998 91.3998C88.3228 91.3998 84.6818 90.6809 81.2847 89.2844C77.8876 87.8878 74.8009 85.8408 72.2008 83.2603C69.6008 80.6797 67.5383 77.6162 66.1312 74.2445C64.7241 70.8729 63.9998 67.2592 63.9998 63.6098C63.9998 56.2394 66.9498 49.1709 72.2008 43.9593C77.4518 38.7477 84.5738 35.8198 91.9998 35.8198C99.4259 35.8198 106.548 38.7477 111.799 43.9593C117.05 49.1709 120 56.2394 120 63.6098Z" stroke="#22D3EE" stroke-width="24" stroke-linecap="square"/>
<path d="M144 151.744V146.98C144 138.556 140.629 130.478 134.628 124.522C128.626 118.566 120.487 115.22 112 115.22H72.0002C63.5133 115.22 55.3739 118.566 49.3728 124.522C43.3716 130.478 40.0002 138.556 40.0002 146.98V151.744C54.477 164.068 72.9276 170.829 92.0002 170.8C111.073 170.829 129.523 164.068 144 151.744Z" stroke="#22D3EE" stroke-linecap="square"/>
<path d="M172 91.3999C172 47.5473 136.184 12 92 12C47.816 12 12 47.5473 12 91.3999C12 135.252 47.816 170.8 92 170.8C136.184 170.8 172 135.252 172 91.3999Z" stroke="#22D3EE" stroke-width="24" stroke-linecap="square"/>
</svg>
