<svg width="31" height="31" viewBox="0 0 31 31" fill="none" xmlns="http://www.w3.org/2000/svg">
<path d="M15.36 10.24C21.7223 10.24 26.88 8.52077 26.88 6.4C26.88 4.27922 21.7223 2.56 15.36 2.56C8.99771 2.56 3.84003 4.27922 3.84003 6.4C3.84003 8.52077 8.99771 10.24 15.36 10.24Z" stroke="#22D3EE" stroke-width="2.56" stroke-linecap="round" stroke-linejoin="round"/>
<path d="M3.84003 6.40002V24.32C3.84003 25.3385 5.05374 26.3152 7.21416 27.0353C9.37458 27.7555 12.3047 28.16 15.36 28.16C18.4153 28.16 21.3455 27.7555 23.5059 27.0353C25.6663 26.3152 26.88 25.3385 26.88 24.32V6.40002" stroke="#22D3EE" stroke-width="2.56" stroke-linecap="round" stroke-linejoin="round"/>
<path d="M3.84003 15.36C3.84003 16.3784 5.05374 17.3551 7.21416 18.0753C9.37458 18.7954 12.3047 19.2 15.36 19.2C18.4153 19.2 21.3455 18.7954 23.5059 18.0753C25.6663 17.3551 26.88 16.3784 26.88 15.36" stroke="#22D3EE" stroke-width="2.56" stroke-linecap="round" stroke-linejoin="round"/>
</svg>
