<svg width="132" height="26" viewBox="0 0 132 26" fill="none" xmlns="http://www.w3.org/2000/svg">
<mask id="path-1-inside-1_11_3698" fill="white">
<path d="M0 0H131.6V25.6H0V0Z"/>
</mask>
<path d="M0 0H131.6V25.6H0V0Z" fill="#22C55E" fill-opacity="0.2"/>
<path d="M0 0V-1H-1V0H0ZM131.6 0H132.6V-1H131.6V0ZM131.6 25.6V26.6H132.6V25.6H131.6ZM0 25.6H-1V26.6H0V25.6ZM0 0V1H131.6V0V-1H0V0ZM131.6 0H130.6V25.6H131.6H132.6V0H131.6ZM131.6 25.6V24.6H0V25.6V26.6H131.6V25.6ZM0 25.6H1V0H0H-1V25.6H0Z" fill="#22C55E" fill-opacity="0.5" mask="url(#path-1-inside-1_11_3698)"/>
<path d="M22.4666 13.3832C22.4666 16.2999 20.425 17.7582 17.9983 18.6041C17.8712 18.6471 17.7332 18.6451 17.6075 18.5982C15.175 17.7582 13.1333 16.2999 13.1333 13.3832V9.2999C13.1333 9.14519 13.1948 8.99682 13.3042 8.88743C13.4136 8.77803 13.5619 8.71657 13.7166 8.71657C14.8833 8.71657 16.3416 8.01657 17.3566 7.1299C17.4802 7.02432 17.6374 6.96631 17.8 6.96631C17.9625 6.96631 18.1197 7.02432 18.2433 7.1299C19.2641 8.0224 20.7166 8.71657 21.8833 8.71657C22.038 8.71657 22.1864 8.77803 22.2958 8.88743C22.4052 8.99682 22.4666 9.14519 22.4666 9.2999V13.3832Z" stroke="#4ADE80" stroke-width="1.16667" stroke-linecap="round" stroke-linejoin="round"/>
<path d="M34.618 16.7998H32.4063V15.4319H34.5413C35.1492 15.4319 35.6563 15.3211 36.0626 15.0995C36.4688 14.8751 36.7742 14.5413 36.9788 14.0981C37.1833 13.6521 37.2856 13.0953 37.2856 12.4276C37.2856 11.76 37.1833 11.2061 36.9788 10.7657C36.7742 10.3225 36.4717 9.99157 36.0711 9.77282C35.6734 9.55123 35.1791 9.44043 34.5882 9.44043H32.3595V8.07253H34.6776C35.5441 8.07253 36.2884 8.24725 36.9106 8.59668C37.5356 8.94327 38.0157 9.44185 38.3509 10.0924C38.6862 10.743 38.8538 11.5214 38.8538 12.4276C38.8538 13.3367 38.6847 14.118 38.3467 14.7714C38.0115 15.4248 37.5271 15.9262 36.8936 16.2757C36.2629 16.6251 35.5044 16.7998 34.618 16.7998ZM33.2416 8.07253V16.7998H31.6606V8.07253H33.2416ZM30.3992 12.7174V11.7458H34.4859V12.7174H30.3992ZM42.0767 16.7998H40.3892L43.4616 8.07253H45.4133L48.49 16.7998H46.8025L44.4715 9.8623H44.4034L42.0767 16.7998ZM42.132 13.3779H46.7343V14.6478H42.132V13.3779ZM43.1889 7.21174L42.2514 7.19043C42.2514 6.68475 42.382 6.28844 42.6434 6.00151C42.9076 5.71458 43.2301 5.57111 43.6107 5.57111C43.7954 5.57111 43.9559 5.60236 44.0923 5.66486C44.2315 5.72452 44.3579 5.79412 44.4715 5.87367C44.5852 5.95321 44.6974 6.02424 44.8082 6.08674C44.919 6.1464 45.0411 6.17622 45.1747 6.17622C45.3366 6.17622 45.4644 6.11515 45.5582 5.99299C45.6548 5.87083 45.7045 5.71458 45.7073 5.52424L46.6235 5.56259C46.6207 6.07111 46.4886 6.466 46.2272 6.74725C45.9659 7.02566 45.6463 7.16628 45.2684 7.16912C45.061 7.16912 44.8877 7.13929 44.7485 7.07963C44.6093 7.01713 44.4872 6.94611 44.382 6.86657C44.2798 6.78702 44.1761 6.71742 44.071 6.65776C43.9659 6.59526 43.8423 6.56401 43.7002 6.56401C43.5497 6.56401 43.4261 6.62367 43.3295 6.74299C43.2357 6.8623 43.1889 7.01855 43.1889 7.21174ZM53.8161 16.7998V8.07253H55.397V12.0825H55.5036L58.9084 8.07253H60.8388L57.4638 11.9887L60.8686 16.7998H58.9681L56.3644 13.0583L55.397 14.2004V16.7998H53.8161ZM64.1181 8.07253V16.7998H62.5372V8.07253H64.1181ZM66.4301 16.7998V8.07253H72.1063V9.39782H68.0111V11.7671H71.8122V13.0924H68.0111V15.4745H72.1404V16.7998H66.4301ZM69.8051 5.99299L71.4671 7.39497H70.2781L69.2639 6.53844L68.2455 7.39497H67.0566L68.7185 5.99299H69.8051ZM71.7781 6.62367H70.9131L70.8577 5.93333C71.0992 5.91912 71.2753 5.88787 71.3861 5.83958C71.4997 5.78844 71.5566 5.71032 71.5566 5.6052C71.5566 5.47168 71.4855 5.38077 71.3435 5.33247C71.2014 5.28134 71.021 5.25577 70.8023 5.25577L70.8449 4.6123C71.4017 4.6123 71.8236 4.69753 72.1105 4.86799C72.4003 5.03844 72.5452 5.27282 72.5452 5.57111C72.5452 5.80122 72.4656 5.9731 72.3066 6.08674C72.1475 6.20037 71.9713 6.2714 71.7781 6.2998V6.62367ZM74.3192 8.07253H76.2539L78.8448 14.3964H78.947L81.5379 8.07253H83.4726V16.7998H81.9556V10.8041H81.8746L79.4627 16.7742H78.3291L75.9172 10.7913H75.8362V16.7998H74.3192V8.07253ZM92.3281 16.7998H89.3708V8.07253H92.3878C93.2543 8.07253 93.9986 8.24725 94.6208 8.59668C95.2458 8.94327 95.7259 9.44185 96.0611 10.0924C96.3963 10.743 96.5639 11.5214 96.5639 12.4276C96.5639 13.3367 96.3949 14.118 96.0568 14.7714C95.7216 15.4248 95.2372 15.9262 94.6037 16.2757C93.973 16.6251 93.2145 16.7998 92.3281 16.7998ZM90.9517 15.4319H92.2514C92.8594 15.4319 93.3665 15.3211 93.7727 15.0995C94.179 14.8751 94.4844 14.5413 94.6889 14.0981C94.8935 13.6521 94.9958 13.0953 94.9958 12.4276C94.9958 11.76 94.8935 11.2061 94.6889 10.7657C94.4844 10.3225 94.1818 9.99157 93.7813 9.77282C93.3835 9.55123 92.8892 9.44043 92.2983 9.44043H90.9517V15.4319ZM100.247 8.07253V16.7998H98.6661V8.07253H100.247ZM99.4544 19.1563C99.2073 19.1563 98.9956 19.074 98.8195 18.9092C98.6462 18.7444 98.5595 18.547 98.5595 18.3169C98.5595 18.0867 98.6462 17.8893 98.8195 17.7245C98.9956 17.5597 99.2058 17.4774 99.4502 17.4774C99.6973 17.4774 99.9075 17.5597 100.081 17.7245C100.257 17.8893 100.345 18.0867 100.345 18.3169C100.345 18.547 100.257 18.7444 100.081 18.9092C99.9075 19.074 99.6987 19.1563 99.4544 19.1563ZM109.731 8.07253V16.7998H108.325L104.212 10.8552H104.14V16.7998H102.559V8.07253H103.974L108.082 14.0214H108.158V8.07253H109.731ZM112.054 16.7998V8.07253H113.635V11.7671H117.679V8.07253H119.264V16.7998H117.679V13.0924H113.635V16.7998H112.054Z" fill="#4ADE80"/>
</svg>
