<svg width="100" height="26" viewBox="0 0 100 26" fill="none" xmlns="http://www.w3.org/2000/svg">
<mask id="path-1-inside-1_1_2974" fill="white">
<path d="M0 0H99.6V25.6H0V0Z"/>
</mask>
<path d="M0 0H99.6V25.6H0V0Z" fill="#22C55E" fill-opacity="0.2"/>
<path d="M0 0V-1H-1V0H0ZM99.6 0H100.6V-1H99.6V0ZM99.6 25.6V26.6H100.6V25.6H99.6ZM0 25.6H-1V26.6H0V25.6ZM0 0V1H99.6V0V-1H0V0ZM99.6 0H98.6V25.6H99.6H100.6V0H99.6ZM99.6 25.6V24.6H0V25.6V26.6H99.6V25.6ZM0 25.6H1V0H0H-1V25.6H0Z" fill="#22C55E" fill-opacity="0.5" mask="url(#path-1-inside-1_1_2974)"/>
<path d="M22.4666 13.3835C22.4666 16.3001 20.425 17.7585 17.9983 18.6043C17.8712 18.6474 17.7332 18.6453 17.6075 18.5985C15.175 17.7585 13.1333 16.3001 13.1333 13.3835V9.30015C13.1333 9.14544 13.1948 8.99707 13.3042 8.88767C13.4136 8.77827 13.5619 8.71681 13.7166 8.71681C14.8833 8.71681 16.3416 8.01681 17.3566 7.13015C17.4802 7.02456 17.6374 6.96655 17.8 6.96655C17.9625 6.96655 18.1197 7.02456 18.2433 7.13015C19.2641 8.02265 20.7166 8.71681 21.8833 8.71681C22.038 8.71681 22.1864 8.77827 22.2958 8.88767C22.4052 8.99707 22.4666 9.14544 22.4666 9.30015V13.3835Z" stroke="#4ADE80" stroke-width="1.16667" stroke-linecap="round" stroke-linejoin="round"/>
<path d="M32.8282 8.07278L35.0995 14.9421H35.189L37.4561 8.07278H39.1947L36.118 16.8H34.1663L31.0938 8.07278H32.8282ZM40.9442 16.8V8.07278H46.6203V9.39806H42.5252V11.7674H46.3263V13.0927H42.5252V15.4748H46.6544V16.8H40.9442ZM48.8333 16.8V8.07278H52.106C52.7764 8.07278 53.3389 8.18925 53.7935 8.42221C54.2509 8.65516 54.596 8.98187 54.829 9.40232C55.0648 9.81994 55.1827 10.3072 55.1827 10.864C55.1827 11.4236 55.0634 11.9094 54.8247 12.3214C54.5889 12.7304 54.2409 13.0472 53.7807 13.2716C53.3205 13.4932 52.7551 13.604 52.0847 13.604H49.7537V12.2915H51.8716C52.2637 12.2915 52.5847 12.2375 52.8347 12.1296C53.0847 12.0188 53.2693 11.8583 53.3887 11.6481C53.5108 11.435 53.5719 11.1736 53.5719 10.864C53.5719 10.5543 53.5108 10.2901 53.3887 10.0714C53.2665 9.84976 53.0804 9.68215 52.8304 9.56851C52.5804 9.45204 52.258 9.3938 51.8631 9.3938H50.4142V16.8H48.8333ZM53.3418 12.8455L55.5023 16.8H53.7381L51.6159 12.8455H53.3418ZM58.8189 8.07278V16.8H57.2379V8.07278H58.8189ZM61.1309 16.8V8.07278H66.7218V9.39806H62.7119V11.7674H66.3383V13.0927H62.7119V16.8H61.1309ZM70.3431 8.07278V16.8H68.7622V8.07278H70.3431ZM72.6551 16.8V8.07278H78.3313V9.39806H74.2361V11.7674H78.0372V13.0927H74.2361V15.4748H78.3654V16.8H72.6551ZM83.5016 16.8H80.5442V8.07278H83.5612C84.4277 8.07278 85.172 8.24749 85.7942 8.59692C86.4192 8.94351 86.8993 9.44209 87.2345 10.0927C87.5698 10.7432 87.7374 11.5216 87.7374 12.4279C87.7374 13.337 87.5683 14.1182 87.2303 14.7716C86.895 15.425 86.4107 15.9265 85.7771 16.2759C85.1465 16.6253 84.3879 16.8 83.5016 16.8ZM82.1252 15.4322H83.4249C84.0328 15.4322 84.5399 15.3214 84.9462 15.0998C85.3524 14.8753 85.6578 14.5415 85.8624 14.0983C86.0669 13.6523 86.1692 13.0955 86.1692 12.4279C86.1692 11.7603 86.0669 11.2063 85.8624 10.766C85.6578 10.3228 85.3553 9.99181 84.9547 9.77306C84.557 9.55147 84.0627 9.44067 83.4718 9.44067H82.1252V15.4322Z" fill="#4ADE80"/>
</svg>
