<svg width="32" height="32" viewBox="0 0 32 32" fill="none" xmlns="http://www.w3.org/2000/svg">
<mask id="path-1-inside-1_3_742" fill="white">
<path d="M0 0H32V32H0V0Z"/>
</mask>
<path d="M0 0H32V32H0V0Z" fill="#06B6D4" fill-opacity="0.1"/>
<path d="M0 0V-1H-1V0H0ZM32 0H33V-1H32V0ZM32 32V33H33V32H32ZM0 32H-1V33H0V32ZM0 0V1H32V0V-1H0V0ZM32 0H31V32H32H33V0H32ZM32 32V31H0V32V33H32V32ZM0 32H1V0H0H-1V32H0Z" fill="#06B6D4" fill-opacity="0.5" mask="url(#path-1-inside-1_3_742)"/>
<path d="M21.3335 10H10.6668C9.93045 10 9.3335 10.597 9.3335 11.3333V18C9.3335 18.7364 9.93045 19.3333 10.6668 19.3333H21.3335C22.0699 19.3333 22.6668 18.7364 22.6668 18V11.3333C22.6668 10.597 22.0699 10 21.3335 10Z" stroke="#22D3EE" stroke-width="1.33333" stroke-linecap="round" stroke-linejoin="round"/>
<path d="M13.3335 22H18.6668" stroke="#22D3EE" stroke-width="1.33333" stroke-linecap="round" stroke-linejoin="round"/>
<path d="M16 19.3333V21.9999" stroke="#22D3EE" stroke-width="1.33333" stroke-linecap="round" stroke-linejoin="round"/>
</svg>
