<svg width="40" height="40" viewBox="0 0 40 40" fill="none" xmlns="http://www.w3.org/2000/svg">
<mask id="path-1-inside-1_1_3079" fill="white">
<path d="M0 0H40V40H0V0Z"/>
</mask>
<path d="M0 0H40V40H0V0Z" fill="url(#paint0_linear_1_3079)"/>
<path d="M0 0V-1H-1V0H0ZM40 0H41V-1H40V0ZM40 40V41H41V40H40ZM0 40H-1V41H0V40ZM0 0V1H40V0V-1H0V0ZM40 0H39V40H40H41V0H40ZM40 40V39H0V40V41H40V40ZM0 40H1V0H0H-1V40H0Z" fill="#C084FC" fill-opacity="0.5" mask="url(#path-1-inside-1_1_3079)"/>
<path d="M14.4943 25H10.8849V14.8182H14.5241C15.5483 14.8182 16.4299 15.022 17.169 15.4297C17.9081 15.834 18.4766 16.4157 18.8743 17.1747C19.2753 17.9337 19.4759 18.8419 19.4759 19.8991C19.4759 20.9598 19.2753 21.8712 18.8743 22.6335C18.4766 23.3958 17.9048 23.9808 17.1591 24.3885C16.4167 24.7962 15.5284 25 14.4943 25ZM13.0376 23.1555H14.4048C15.0412 23.1555 15.5765 23.0429 16.0107 22.8175C16.4482 22.5888 16.7763 22.2358 16.995 21.7585C17.2171 21.2779 17.3281 20.6581 17.3281 19.8991C17.3281 19.1468 17.2171 18.532 16.995 18.0547C16.7763 17.5774 16.4498 17.2261 16.0156 17.0007C15.5814 16.7753 15.0462 16.6626 14.4098 16.6626H13.0376V23.1555ZM22.6104 14.8182L24.6637 18.2884H24.7433L26.8065 14.8182H29.2376L26.1303 19.9091L29.3072 25H26.8313L24.7433 21.5249H24.6637L22.5756 25H20.1097L23.2965 19.9091L20.1694 14.8182H22.6104Z" fill="white"/>
<defs>
<linearGradient id="paint0_linear_1_3079" x1="0" y1="0" x2="40" y2="40" gradientUnits="userSpaceOnUse">
<stop stop-color="#A855F7"/>
<stop offset="1" stop-color="#DB2777"/>
</linearGradient>
</defs>
</svg>
