<svg width="32" height="32" viewBox="0 0 32 32" fill="none" xmlns="http://www.w3.org/2000/svg">
<mask id="path-1-inside-1_3_914" fill="white">
<path d="M0 0H32V32H0V0Z"/>
</mask>
<path d="M0 0H32V32H0V0Z" fill="#06B6D4" fill-opacity="0.1"/>
<path d="M0 0V-1H-1V0H0ZM32 0H33V-1H32V0ZM32 32V33H33V32H32ZM0 32H-1V33H0V32ZM0 0V1H32V0V-1H0V0ZM32 0H31V32H32H33V0H32ZM32 32V31H0V32V33H32V32ZM0 32H1V0H0H-1V32H0Z" fill="#06B6D4" fill-opacity="0.5" mask="url(#path-1-inside-1_3_914)"/>
<path d="M16 9.33325V22.6666" stroke="#22D3EE" stroke-width="1.33333" stroke-linecap="round" stroke-linejoin="round"/>
<path d="M19.3333 11.3333H14.3333C13.7145 11.3333 13.121 11.5791 12.6834 12.0167C12.2458 12.4543 12 13.0477 12 13.6666C12 14.2854 12.2458 14.8789 12.6834 15.3165C13.121 15.7541 13.7145 15.9999 14.3333 15.9999H17.6667C18.2855 15.9999 18.879 16.2458 19.3166 16.6833C19.7542 17.1209 20 17.7144 20 18.3333C20 18.9521 19.7542 19.5456 19.3166 19.9832C18.879 20.4208 18.2855 20.6666 17.6667 20.6666H12" stroke="#22D3EE" stroke-width="1.33333" stroke-linecap="round" stroke-linejoin="round"/>
</svg>
