<svg width="32" height="32" viewBox="0 0 32 32" fill="none" xmlns="http://www.w3.org/2000/svg">
<mask id="path-1-inside-1_3_180" fill="white">
<path d="M0 0H32V32H0V0Z"/>
</mask>
<path d="M0 0H32V32H0V0Z" fill="#06B6D4" fill-opacity="0.1"/>
<path d="M0 0V-1H-1V0H0ZM32 0H33V-1H32V0ZM32 32V33H33V32H32ZM0 32H-1V33H0V32ZM0 0V1H32V0V-1H0V0ZM32 0H31V32H32H33V0H32ZM32 32V31H0V32V33H32V32ZM0 32H1V0H0H-1V32H0Z" fill="#06B6D4" fill-opacity="0.5" mask="url(#path-1-inside-1_3_180)"/>
<path d="M21.3332 16.6666C21.3332 20 18.9998 21.6666 16.2265 22.6333C16.0813 22.6825 15.9235 22.6802 15.7798 22.6266C12.9998 21.6666 10.6665 20 10.6665 16.6666V12C10.6665 11.8232 10.7367 11.6536 10.8618 11.5286C10.9868 11.4035 11.1564 11.3333 11.3332 11.3333C12.6665 11.3333 14.3332 10.5333 15.4932 9.51997C15.6344 9.39931 15.8141 9.33301 15.9998 9.33301C16.1856 9.33301 16.3653 9.39931 16.5065 9.51997C17.6732 10.54 19.3332 11.3333 20.6665 11.3333C20.8433 11.3333 21.0129 11.4035 21.1379 11.5286C21.2629 11.6536 21.3332 11.8232 21.3332 12V16.6666Z" stroke="#22D3EE" stroke-width="1.33333" stroke-linecap="round" stroke-linejoin="round"/>
</svg>
