<svg width="32" height="32" viewBox="0 0 32 32" fill="none" xmlns="http://www.w3.org/2000/svg">
<mask id="path-1-inside-1_3_384" fill="white">
<path d="M0 0H32V32H0V0Z"/>
</mask>
<path d="M0 0H32V32H0V0Z" fill="#06B6D4" fill-opacity="0.1"/>
<path d="M0 0V-1H-1V0H0ZM32 0H33V-1H32V0ZM32 32V33H33V32H32ZM0 32H-1V33H0V32ZM0 0V1H32V0V-1H0V0ZM32 0H31V32H32H33V0H32ZM32 32V31H0V32V33H32V32ZM0 32H1V0H0H-1V32H0Z" fill="#06B6D4" fill-opacity="0.5" mask="url(#path-1-inside-1_3_384)"/>
<path d="M16.0002 22.6668C19.6821 22.6668 22.6668 19.6821 22.6668 16.0002C22.6668 12.3183 19.6821 9.3335 16.0002 9.3335C12.3183 9.3335 9.3335 12.3183 9.3335 16.0002C9.3335 19.6821 12.3183 22.6668 16.0002 22.6668Z" stroke="#22D3EE" stroke-width="1.33333" stroke-linecap="round" stroke-linejoin="round"/>
<path d="M16.0002 9.3335C14.2883 11.1309 13.3335 13.518 13.3335 16.0002C13.3335 18.4823 14.2883 20.8694 16.0002 22.6668C17.712 20.8694 18.6668 18.4823 18.6668 16.0002C18.6668 13.518 17.712 11.1309 16.0002 9.3335Z" stroke="#22D3EE" stroke-width="1.33333" stroke-linecap="round" stroke-linejoin="round"/>
<path d="M9.3335 16H22.6668" stroke="#22D3EE" stroke-width="1.33333" stroke-linecap="round" stroke-linejoin="round"/>
</svg>
