<svg width="96" height="96" viewBox="0 0 96 96" fill="none" xmlns="http://www.w3.org/2000/svg">
<mask id="path-1-inside-1_1_2966" fill="white">
<path d="M0 0H96V96H0V0Z"/>
</mask>
<path d="M0 0H96V96H0V0Z" fill="url(#paint0_linear_1_2966)"/>
<path d="M0 0V-1H-1V0H0ZM96 0H97V-1H96V0ZM96 96V97H97V96H96ZM0 96H-1V97H0V96ZM0 0V1H96V0V-1H0V0ZM96 0H95V96H96H97V0H96ZM96 96V95H0V96V97H96V96ZM0 96H1V0H0H-1V96H0Z" fill="#22D3EE" fill-opacity="0.5" mask="url(#path-1-inside-1_1_2966)"/>
<path d="M34.0568 61H24.7756V34.8182H34.1335C36.767 34.8182 39.0341 35.3423 40.9347 36.3906C42.8352 37.4304 44.2969 38.9261 45.3196 40.8778C46.3509 42.8295 46.8665 45.1648 46.8665 47.8835C46.8665 50.6108 46.3509 52.9545 45.3196 54.9148C44.2969 56.875 42.8267 58.3793 40.9091 59.4276C39 60.4759 36.7159 61 34.0568 61ZM30.3111 56.2571H33.8267C35.4631 56.2571 36.8395 55.9673 37.956 55.3878C39.081 54.7997 39.9247 53.892 40.4872 52.6648C41.0582 51.429 41.3438 49.8352 41.3438 47.8835C41.3438 45.9489 41.0582 44.3679 40.4872 43.1406C39.9247 41.9134 39.0852 41.0099 37.9688 40.4304C36.8523 39.8509 35.4759 39.5611 33.8395 39.5611H30.3111V56.2571ZM54.9268 34.8182L60.2067 43.7415H60.4112L65.7166 34.8182H71.968L63.978 47.9091L72.147 61H65.7805L60.4112 52.0639H60.2067L54.8374 61H48.4964L56.6911 47.9091L48.6499 34.8182H54.9268Z" fill="white"/>
<defs>
<linearGradient id="paint0_linear_1_2966" x1="0" y1="0" x2="96" y2="96" gradientUnits="userSpaceOnUse">
<stop stop-color="#06B6D4"/>
<stop offset="1" stop-color="#2563EB"/>
</linearGradient>
</defs>
</svg>
