<svg width="96" height="96" viewBox="0 0 96 96" fill="none" xmlns="http://www.w3.org/2000/svg">
<path d="M84 32.0001C83.9986 30.5972 83.6282 29.2193 82.9262 28.0047C82.2241 26.7902 81.2149 25.7815 80 25.0801L52 9.0801C50.7838 8.37795 49.4043 8.0083 48 8.0083C46.5957 8.0083 45.2162 8.37795 44 9.0801L16 25.0801C14.7851 25.7815 13.7759 26.7902 13.0738 28.0047C12.3718 29.2193 12.0014 30.5972 12 32.0001V64.0001C12.0014 65.403 12.3718 66.7809 13.0738 67.9954C13.7759 69.21 14.7851 70.2186 16 70.9201L44 86.9201C45.2162 87.6222 46.5957 87.9919 48 87.9919C49.4043 87.9919 50.7838 87.6222 52 86.9201L80 70.9201C81.2149 70.2186 82.2241 69.21 82.9262 67.9954C83.6282 66.7809 83.9986 65.403 84 64.0001V32.0001Z" stroke="#00F0FF" stroke-width="4" stroke-linecap="round" stroke-linejoin="round"/>
<path d="M13.2002 28L48.0002 48L82.8002 28" stroke="#00F0FF" stroke-width="4" stroke-linecap="round" stroke-linejoin="round"/>
<path d="M48 88V48" stroke="#00F0FF" stroke-width="4" stroke-linecap="round" stroke-linejoin="round"/>
<mask id="path-4-inside-1_1_3412" fill="white">
<path d="M16 16H80V80H16V16Z"/>
</mask>
<path d="M16 16V15H15V16H16ZM80 16H81V15H80V16ZM80 80V81H81V80H80ZM16 80H15V81H16V80ZM16 16V17H80V16V15H16V16ZM80 16H79V80H80H81V16H80ZM80 80V79H16V80V81H80V80ZM16 80H17V16H16H15V80H16Z" fill="#00F0FF" fill-opacity="0.3" mask="url(#path-4-inside-1_1_3412)"/>
</svg>
