<svg width="20" height="22" viewBox="0 0 20 22" fill="none" xmlns="http://www.w3.org/2000/svg">
<path d="M18.3332 16.0999V18.5999C18.3341 18.832 18.2866 19.0617 18.1936 19.2744C18.1006 19.487 17.9643 19.6779 17.7933 19.8348C17.6222 19.9917 17.4203 20.1112 17.2005 20.1855C16.9806 20.2599 16.7477 20.2875 16.5165 20.2666C13.9522 19.988 11.489 19.1117 9.32486 17.7083C7.31139 16.4288 5.60431 14.7217 4.32486 12.7083C2.91651 10.5343 2.04007 8.05908 1.76653 5.48325C1.7457 5.25281 1.77309 5.02055 1.84695 4.80127C1.9208 4.58199 2.03951 4.38049 2.1955 4.2096C2.3515 4.03871 2.54137 3.90218 2.75302 3.80869C2.96468 3.7152 3.19348 3.6668 3.42486 3.66658H5.92486C6.32928 3.6626 6.72136 3.80582 7.028 4.06953C7.33464 4.33324 7.53493 4.69946 7.59153 5.09992C7.69705 5.89997 7.89274 6.68552 8.17486 7.44158C8.28698 7.73985 8.31125 8.06401 8.24478 8.37565C8.17832 8.68729 8.02392 8.97334 7.79986 9.19992L6.74153 10.2583C7.92783 12.3445 9.65524 14.072 11.7415 15.2583L12.7999 14.1999C13.0264 13.9759 13.3125 13.8215 13.6241 13.755C13.9358 13.6885 14.2599 13.7128 14.5582 13.8249C15.3143 14.107 16.0998 14.3027 16.8999 14.4083C17.3047 14.4654 17.6744 14.6693 17.9386 14.9812C18.2029 15.2931 18.3433 15.6912 18.3332 16.0999Z" stroke="#00F0FF" stroke-width="1.66667" stroke-linecap="round" stroke-linejoin="round"/>
</svg>
